<svg width="23" height="12" viewBox="0 0 23 12" fill="none" xmlns="http://www.w3.org/2000/svg">
<path d="M0.5177 4.91267L0.974718 2.88644L8.69552 1.5158L8.19565 3.73199L3.14701 4.42058L3.24424 4.32991L3.18602 4.58806L3.13822 4.45955L7.40136 7.25354L6.9026 9.46486L0.5177 4.91267Z" fill="url(#paint0_linear_40_11)"/>
<path d="M15.8043 0.549669L9.8958 11.7677L7.86469 11.3096L13.7732 0.0915527L15.8043 0.549669Z" fill="url(#paint1_linear_40_11)"/>
<path d="M22.4921 9.86901L14.7713 11.2397L15.2701 9.02833L20.3198 8.33487L20.2263 8.43151L20.2846 8.17336L20.3286 8.2959L16.0644 5.50678L16.5642 3.29059L22.9491 7.84278L22.4921 9.86901Z" fill="url(#paint2_linear_40_11)"/>
<defs>
<linearGradient id="paint0_linear_40_11" x1="12.4448" y1="-3.5856" x2="5.97308" y2="11.1643" gradientUnits="userSpaceOnUse">
<stop stop-color="#63FFDA"/>
<stop offset="1" stop-color="#08785D"/>
</linearGradient>
<linearGradient id="paint1_linear_40_11" x1="12.4448" y1="-3.5856" x2="5.97308" y2="11.1643" gradientUnits="userSpaceOnUse">
<stop stop-color="#63FFDA"/>
<stop offset="1" stop-color="#08785D"/>
</linearGradient>
<linearGradient id="paint2_linear_40_11" x1="12.4448" y1="-3.5856" x2="5.97308" y2="11.1643" gradientUnits="userSpaceOnUse">
<stop stop-color="#63FFDA"/>
<stop offset="1" stop-color="#08785D"/>
</linearGradient>
</defs>
</svg>
