<svg width="153" height="14" viewBox="0 0 153 14" fill="none" xmlns="http://www.w3.org/2000/svg">
<path d="M53.4637 12.1079C52.8237 12.1079 52.2477 11.9679 51.7357 11.6879C51.2237 11.3999 50.8197 10.9959 50.5237 10.4759C50.2357 9.9559 50.0917 9.3559 50.0917 8.6759C50.0917 7.9959 50.2397 7.3959 50.5357 6.8759C50.8397 6.3559 51.2517 5.9559 51.7717 5.6759C52.2917 5.3879 52.8717 5.2439 53.5117 5.2439C54.1517 5.2439 54.7317 5.3879 55.2517 5.6759C55.7717 5.9559 56.1797 6.3559 56.4757 6.8759C56.7797 7.3959 56.9317 7.9959 56.9317 8.6759C56.9317 9.3559 56.7757 9.9559 56.4637 10.4759C56.1597 10.9959 55.7437 11.3999 55.2157 11.6879C54.6957 11.9679 54.1117 12.1079 53.4637 12.1079ZM53.4637 10.6439C53.7677 10.6439 54.0517 10.5719 54.3157 10.4279C54.5877 10.2759 54.8037 10.0519 54.9637 9.7559C55.1237 9.4599 55.2037 9.0999 55.2037 8.6759C55.2037 8.0439 55.0357 7.5599 54.6997 7.2239C54.3717 6.8799 53.9677 6.7079 53.4877 6.7079C53.0077 6.7079 52.6037 6.8799 52.2757 7.2239C51.9557 7.5599 51.7957 8.0439 51.7957 8.6759C51.7957 9.3079 51.9517 9.7959 52.2637 10.1399C52.5837 10.4759 52.9837 10.6439 53.4637 10.6439Z" fill="#112240"/>
<path d="M48.0238 4.56004C47.7278 4.56004 47.4798 4.46804 47.2798 4.28404C47.0878 4.09204 46.9918 3.85604 46.9918 3.57604C46.9918 3.29604 47.0878 3.06404 47.2798 2.88004C47.4798 2.68804 47.7278 2.59204 48.0238 2.59204C48.3198 2.59204 48.5638 2.68804 48.7558 2.88004C48.9558 3.06404 49.0558 3.29604 49.0558 3.57604C49.0558 3.85604 48.9558 4.09204 48.7558 4.28404C48.5638 4.46804 48.3198 4.56004 48.0238 4.56004ZM48.8518 5.35204V12H47.1718V5.35204H48.8518Z" fill="#112240"/>
<path d="M38.6069 8.6519C38.6069 7.9799 38.7389 7.3839 39.0029 6.8639C39.2749 6.3439 39.6389 5.9439 40.0949 5.6639C40.5589 5.3839 41.0749 5.2439 41.6429 5.2439C42.1389 5.2439 42.5709 5.3439 42.9389 5.5439C43.3149 5.7439 43.6149 5.9959 43.8389 6.2999V5.3519H45.5309V11.9999H43.8389V11.0279C43.6229 11.3399 43.3229 11.5999 42.9389 11.8079C42.5629 12.0079 42.1269 12.1079 41.6309 12.1079C41.0709 12.1079 40.5589 11.9639 40.0949 11.6759C39.6389 11.3879 39.2749 10.9839 39.0029 10.4639C38.7389 9.9359 38.6069 9.3319 38.6069 8.6519ZM43.8389 8.6759C43.8389 8.2679 43.7589 7.9199 43.5989 7.6319C43.4389 7.3359 43.2229 7.1119 42.9509 6.9599C42.6789 6.7999 42.3869 6.7199 42.0749 6.7199C41.7629 6.7199 41.4749 6.7959 41.2109 6.9479C40.9469 7.0999 40.7309 7.3239 40.5629 7.6199C40.4029 7.9079 40.3229 8.2519 40.3229 8.6519C40.3229 9.0519 40.4029 9.4039 40.5629 9.7079C40.7309 10.0039 40.9469 10.2319 41.2109 10.3919C41.4829 10.5519 41.7709 10.6319 42.0749 10.6319C42.3869 10.6319 42.6789 10.5559 42.9509 10.4039C43.2229 10.2439 43.4389 10.0199 43.5989 9.7319C43.7589 9.4359 43.8389 9.0839 43.8389 8.6759Z" fill="#112240"/>
<path d="M29.42 7.80011C29.42 6.97611 29.604 6.24011 29.972 5.59211C30.348 4.93611 30.856 4.42811 31.496 4.06811C32.144 3.70011 32.868 3.51611 33.668 3.51611C34.604 3.51611 35.424 3.75611 36.128 4.23611C36.832 4.71611 37.324 5.38011 37.604 6.22811H35.672C35.48 5.82811 35.208 5.52811 34.856 5.32811C34.512 5.12811 34.112 5.02811 33.656 5.02811C33.168 5.02811 32.732 5.14411 32.348 5.37611C31.972 5.60011 31.676 5.92011 31.46 6.33611C31.252 6.75211 31.148 7.24011 31.148 7.80011C31.148 8.35211 31.252 8.84011 31.46 9.26411C31.676 9.68011 31.972 10.0041 32.348 10.2361C32.732 10.4601 33.168 10.5721 33.656 10.5721C34.112 10.5721 34.512 10.4721 34.856 10.2721C35.208 10.0641 35.48 9.76011 35.672 9.36011H37.604C37.324 10.2161 36.832 10.8841 36.128 11.3641C35.432 11.8361 34.612 12.0721 33.668 12.0721C32.868 12.0721 32.144 11.8921 31.496 11.5321C30.856 11.1641 30.348 10.6561 29.972 10.0081C29.604 9.36011 29.42 8.62411 29.42 7.80011Z" fill="#112240"/>
<path d="M150.438 6.49195C150.63 6.11595 150.902 5.82396 151.254 5.61596C151.614 5.40796 152.05 5.30396 152.562 5.30396V6.43195H152.274C151.05 6.43195 150.438 7.09595 150.438 8.42395V12H149.346V5.42395H150.438V6.49195Z" fill="#112240"/>
<path d="M142.329 6.64812C142.553 6.25612 142.881 5.93612 143.313 5.68812C143.745 5.44012 144.237 5.31612 144.789 5.31612C145.381 5.31612 145.913 5.45612 146.385 5.73612C146.857 6.01612 147.229 6.41212 147.501 6.92412C147.773 7.42812 147.909 8.01612 147.909 8.68812C147.909 9.35212 147.773 9.94412 147.501 10.4641C147.229 10.9841 146.853 11.3881 146.373 11.6761C145.901 11.9641 145.373 12.1081 144.789 12.1081C144.221 12.1081 143.721 11.9841 143.289 11.7361C142.865 11.4881 142.545 11.1721 142.329 10.7881V12.0001H141.237V3.12012H142.329V6.64812ZM146.793 8.68812C146.793 8.19212 146.693 7.76012 146.493 7.39212C146.293 7.02412 146.021 6.74412 145.677 6.55212C145.341 6.36012 144.969 6.26412 144.561 6.26412C144.161 6.26412 143.789 6.36412 143.445 6.56412C143.109 6.75612 142.837 7.04012 142.629 7.41612C142.429 7.78412 142.329 8.21212 142.329 8.70012C142.329 9.19612 142.429 9.63212 142.629 10.0081C142.837 10.3761 143.109 10.6601 143.445 10.8601C143.789 11.0521 144.161 11.1481 144.561 11.1481C144.969 11.1481 145.341 11.0521 145.677 10.8601C146.021 10.6601 146.293 10.3761 146.493 10.0081C146.693 9.63212 146.793 9.19212 146.793 8.68812Z" fill="#112240"/>
<path d="M139.065 12.072C138.857 12.072 138.681 12 138.537 11.856C138.393 11.712 138.321 11.536 138.321 11.328C138.321 11.12 138.393 10.944 138.537 10.8C138.681 10.656 138.857 10.584 139.065 10.584C139.265 10.584 139.433 10.656 139.569 10.8C139.713 10.944 139.785 11.12 139.785 11.328C139.785 11.536 139.713 11.712 139.569 11.856C139.433 12 139.265 12.072 139.065 12.072Z" fill="#112240"/>
<path d="M134.438 10.9921L136.478 5.42407H137.642L135.062 12.0001H133.79L131.21 5.42407H132.386L134.438 10.9921Z" fill="#112240"/>
<path d="M130.549 8.45992C130.549 8.66792 130.537 8.88792 130.513 9.11992H125.257C125.297 9.76792 125.517 10.2759 125.917 10.6439C126.325 11.0039 126.817 11.1839 127.393 11.1839C127.865 11.1839 128.257 11.0759 128.569 10.8599C128.889 10.6359 129.113 10.3399 129.241 9.97192H130.417C130.241 10.6039 129.889 11.1199 129.361 11.5199C128.833 11.9119 128.177 12.1079 127.393 12.1079C126.769 12.1079 126.209 11.9679 125.713 11.6879C125.225 11.4079 124.841 11.0119 124.561 10.4999C124.281 9.97992 124.141 9.37992 124.141 8.69992C124.141 8.01992 124.277 7.42392 124.549 6.91192C124.821 6.39992 125.201 6.00792 125.689 5.73592C126.185 5.45592 126.753 5.31592 127.393 5.31592C128.017 5.31592 128.569 5.45192 129.049 5.72392C129.529 5.99592 129.897 6.37192 130.153 6.85192C130.417 7.32392 130.549 7.85992 130.549 8.45992ZM129.421 8.23192C129.421 7.81592 129.329 7.45992 129.145 7.16392C128.961 6.85992 128.709 6.63192 128.389 6.47992C128.077 6.31992 127.729 6.23992 127.345 6.23992C126.793 6.23992 126.321 6.41592 125.929 6.76792C125.545 7.11992 125.325 7.60792 125.269 8.23192H129.421Z" fill="#112240"/>
<path d="M116.032 8.68812C116.032 8.01612 116.168 7.42812 116.44 6.92412C116.712 6.41212 117.084 6.01612 117.556 5.73612C118.036 5.45612 118.572 5.31612 119.164 5.31612C119.676 5.31612 120.152 5.43612 120.592 5.67612C121.032 5.90812 121.368 6.21612 121.6 6.60012V3.12012H122.704V12.0001H121.6V10.7641C121.384 11.1561 121.064 11.4801 120.64 11.7361C120.216 11.9841 119.72 12.1081 119.152 12.1081C118.568 12.1081 118.036 11.9641 117.556 11.6761C117.084 11.3881 116.712 10.9841 116.44 10.4641C116.168 9.94412 116.032 9.35212 116.032 8.68812ZM121.6 8.70012C121.6 8.20412 121.5 7.77212 121.3 7.40412C121.1 7.03612 120.828 6.75612 120.484 6.56412C120.148 6.36412 119.776 6.26412 119.368 6.26412C118.96 6.26412 118.588 6.36012 118.252 6.55212C117.916 6.74412 117.648 7.02412 117.448 7.39212C117.248 7.76012 117.148 8.19212 117.148 8.68812C117.148 9.19212 117.248 9.63212 117.448 10.0081C117.648 10.3761 117.916 10.6601 118.252 10.8601C118.588 11.0521 118.96 11.1481 119.368 11.1481C119.776 11.1481 120.148 11.0521 120.484 10.8601C120.828 10.6601 121.1 10.3761 121.3 10.0081C121.5 9.63212 121.6 9.19612 121.6 8.70012Z" fill="#112240"/>
<path d="M114.268 12.072C114.06 12.072 113.884 12 113.74 11.856C113.596 11.712 113.524 11.536 113.524 11.328C113.524 11.12 113.596 10.944 113.74 10.8C113.884 10.656 114.06 10.584 114.268 10.584C114.468 10.584 114.636 10.656 114.772 10.8C114.916 10.944 114.988 11.12 114.988 11.328C114.988 11.536 114.916 11.712 114.772 11.856C114.636 12 114.468 12.072 114.268 12.072Z" fill="#112240"/>
<path d="M109.112 12.1079C108.496 12.1079 107.936 11.9679 107.432 11.6879C106.936 11.4079 106.544 11.0119 106.256 10.4999C105.976 9.97992 105.836 9.37992 105.836 8.69992C105.836 8.02792 105.98 7.43592 106.268 6.92392C106.564 6.40392 106.964 6.00792 107.468 5.73592C107.972 5.45592 108.536 5.31592 109.16 5.31592C109.784 5.31592 110.348 5.45592 110.852 5.73592C111.356 6.00792 111.752 6.39992 112.04 6.91192C112.336 7.42392 112.484 8.01992 112.484 8.69992C112.484 9.37992 112.332 9.97992 112.028 10.4999C111.732 11.0119 111.328 11.4079 110.816 11.6879C110.304 11.9679 109.736 12.1079 109.112 12.1079ZM109.112 11.1479C109.504 11.1479 109.872 11.0559 110.216 10.8719C110.56 10.6879 110.836 10.4119 111.044 10.0439C111.26 9.67592 111.368 9.22792 111.368 8.69992C111.368 8.17192 111.264 7.72392 111.056 7.35592C110.848 6.98792 110.576 6.71592 110.24 6.53992C109.904 6.35592 109.54 6.26392 109.148 6.26392C108.748 6.26392 108.38 6.35592 108.044 6.53992C107.716 6.71592 107.452 6.98792 107.252 7.35592C107.052 7.72392 106.952 8.17192 106.952 8.69992C106.952 9.23592 107.048 9.68792 107.24 10.0559C107.44 10.4239 107.704 10.6999 108.032 10.8839C108.36 11.0599 108.72 11.1479 109.112 11.1479Z" fill="#112240"/>
<path d="M101.833 5.30412C102.329 5.30412 102.777 5.41212 103.177 5.62812C103.577 5.83612 103.889 6.15212 104.113 6.57612C104.345 7.00012 104.461 7.51612 104.461 8.12412V12.0001H103.381V8.28012C103.381 7.62412 103.217 7.12412 102.889 6.78012C102.561 6.42812 102.113 6.25212 101.545 6.25212C100.969 6.25212 100.509 6.43212 100.165 6.79212C99.8286 7.15212 99.6606 7.67612 99.6606 8.36412V12.0001H98.5686V3.12012H99.6606V6.36012C99.8766 6.02412 100.173 5.76412 100.549 5.58012C100.933 5.39612 101.361 5.30412 101.833 5.30412Z" fill="#112240"/>
<path d="M96.7075 3.12012V12.0001H95.6155V3.12012H96.7075Z" fill="#112240"/>
<path d="M87.098 8.68792C87.098 8.01592 87.234 7.42792 87.506 6.92392C87.778 6.41192 88.15 6.01592 88.622 5.73592C89.102 5.45592 89.634 5.31592 90.218 5.31592C90.794 5.31592 91.294 5.43992 91.718 5.68792C92.142 5.93592 92.458 6.24792 92.666 6.62392V5.42392H93.77V11.9999H92.666V10.7759C92.45 11.1599 92.126 11.4799 91.694 11.7359C91.27 11.9839 90.774 12.1079 90.206 12.1079C89.622 12.1079 89.094 11.9639 88.622 11.6759C88.15 11.3879 87.778 10.9839 87.506 10.4639C87.234 9.94392 87.098 9.35192 87.098 8.68792ZM92.666 8.69992C92.666 8.20392 92.566 7.77192 92.366 7.40392C92.166 7.03592 91.894 6.75592 91.55 6.56392C91.214 6.36392 90.842 6.26392 90.434 6.26392C90.026 6.26392 89.654 6.35992 89.318 6.55192C88.982 6.74392 88.714 7.02392 88.514 7.39192C88.314 7.75992 88.214 8.19192 88.214 8.68792C88.214 9.19192 88.314 9.63192 88.514 10.0079C88.714 10.3759 88.982 10.6599 89.318 10.8599C89.654 11.0519 90.026 11.1479 90.434 11.1479C90.842 11.1479 91.214 11.0519 91.55 10.8599C91.894 10.6599 92.166 10.3759 92.366 10.0079C92.566 9.63192 92.666 9.19592 92.666 8.69992Z" fill="#112240"/>
<path d="M83.2275 10.9921L85.2675 5.42407H86.4315L83.8515 12.0001H82.5795L79.9995 5.42407H81.1755L83.2275 10.9921Z" fill="#112240"/>
<path d="M77.395 6.49195C77.587 6.11595 77.859 5.82396 78.211 5.61596C78.571 5.40796 79.007 5.30396 79.519 5.30396V6.43195H79.231C78.007 6.43195 77.395 7.09595 77.395 8.42395V12H76.303V5.42395H77.395V6.49195Z" fill="#112240"/>
<path d="M67.7855 8.68792C67.7855 8.01592 67.9215 7.42792 68.1935 6.92392C68.4655 6.41192 68.8375 6.01592 69.3095 5.73592C69.7895 5.45592 70.3215 5.31592 70.9055 5.31592C71.4815 5.31592 71.9815 5.43992 72.4055 5.68792C72.8295 5.93592 73.1455 6.24792 73.3535 6.62392V5.42392H74.4575V11.9999H73.3535V10.7759C73.1375 11.1599 72.8135 11.4799 72.3815 11.7359C71.9575 11.9839 71.4615 12.1079 70.8935 12.1079C70.3095 12.1079 69.7815 11.9639 69.3095 11.6759C68.8375 11.3879 68.4655 10.9839 68.1935 10.4639C67.9215 9.94392 67.7855 9.35192 67.7855 8.68792ZM73.3535 8.69992C73.3535 8.20392 73.2535 7.77192 73.0535 7.40392C72.8535 7.03592 72.5815 6.75592 72.2375 6.56392C71.9015 6.36392 71.5295 6.26392 71.1215 6.26392C70.7135 6.26392 70.3415 6.35992 70.0055 6.55192C69.6695 6.74392 69.4015 7.02392 69.2015 7.39192C69.0015 7.75992 68.9015 8.19192 68.9015 8.68792C68.9015 9.19192 69.0015 9.63192 69.2015 10.0079C69.4015 10.3759 69.6695 10.6599 70.0055 10.8599C70.3415 11.0519 70.7135 11.1479 71.1215 11.1479C71.5295 11.1479 71.9015 11.0519 72.2375 10.8599C72.5815 10.6599 72.8535 10.3759 73.0535 10.0079C73.2535 9.63192 73.3535 9.19592 73.3535 8.69992Z" fill="#112240"/>
<path d="M58.516 7.81208C58.516 6.99608 58.7 6.26408 59.068 5.61608C59.436 4.96008 59.936 4.44808 60.568 4.08008C61.208 3.71208 61.916 3.52808 62.692 3.52808C63.604 3.52808 64.4 3.74808 65.08 4.18808C65.76 4.62808 66.256 5.25208 66.568 6.06008H65.26C65.028 5.55608 64.692 5.16808 64.252 4.89608C63.82 4.62408 63.3 4.48808 62.692 4.48808C62.108 4.48808 61.584 4.62408 61.12 4.89608C60.656 5.16808 60.292 5.55608 60.028 6.06008C59.764 6.55608 59.632 7.14008 59.632 7.81208C59.632 8.47608 59.764 9.06008 60.028 9.56408C60.292 10.0601 60.656 10.4441 61.12 10.7161C61.584 10.9881 62.108 11.1241 62.692 11.1241C63.3 11.1241 63.82 10.9921 64.252 10.7281C64.692 10.4561 65.028 10.0681 65.26 9.56408H66.568C66.256 10.3641 65.76 10.9841 65.08 11.4241C64.4 11.8561 63.604 12.0721 62.692 12.0721C61.916 12.0721 61.208 11.8921 60.568 11.5321C59.936 11.1641 59.436 10.6561 59.068 10.0081C58.7 9.36008 58.516 8.62808 58.516 7.81208Z" fill="#112240"/>
<path d="M23.4921 10.869L15.7713 12.2396L16.2701 10.0283L21.3198 9.33481L21.2263 9.43145L21.2846 9.1733L21.3286 9.29584L17.0643 6.50672L17.5642 4.29053L23.9491 8.84272L23.4921 10.869Z" fill="url(#paint0_linear_52_39)"/>
<path d="M16.8043 1.54965L10.8958 12.7677L8.8647 12.3095L14.7732 1.09153L16.8043 1.54965Z" fill="url(#paint1_linear_52_39)"/>
<path d="M1.51773 5.9127L1.97475 3.88647L9.69555 2.51582L9.19569 4.73202L4.14705 5.42061L4.24428 5.32993L4.18605 5.58808L4.13826 5.45958L8.4014 8.25357L7.90263 10.4649L1.51773 5.9127Z" fill="url(#paint2_linear_52_39)"/>
<defs>
<linearGradient id="paint0_linear_52_39" x1="13.4448" y1="-2.58565" x2="6.97309" y2="12.1643" gradientUnits="userSpaceOnUse">
<stop stop-color="#63FFDA"/>
<stop offset="1" stop-color="#08785D"/>
</linearGradient>
<linearGradient id="paint1_linear_52_39" x1="13.4449" y1="-2.58561" x2="6.9731" y2="12.1643" gradientUnits="userSpaceOnUse">
<stop stop-color="#63FFDA"/>
<stop offset="1" stop-color="#08785D"/>
</linearGradient>
<linearGradient id="paint2_linear_52_39" x1="13.4449" y1="-2.58556" x2="6.97313" y2="12.1644" gradientUnits="userSpaceOnUse">
<stop stop-color="#63FFDA"/>
<stop offset="1" stop-color="#08785D"/>
</linearGradient>
</defs>
</svg>
