<svg width="56" height="33" viewBox="0 0 56 33" fill="none" xmlns="http://www.w3.org/2000/svg">
<path d="M0.42 13.8C0.42 12.976 0.604 12.24 0.972 11.592C1.348 10.936 1.856 10.428 2.496 10.068C3.144 9.7 3.868 9.516 4.668 9.516C5.604 9.516 6.424 9.756 7.128 10.236C7.832 10.716 8.324 11.38 8.604 12.228H6.672C6.48 11.828 6.208 11.528 5.856 11.328C5.512 11.128 5.112 11.028 4.656 11.028C4.168 11.028 3.732 11.144 3.348 11.376C2.972 11.6 2.676 11.92 2.46 12.336C2.252 12.752 2.148 13.24 2.148 13.8C2.148 14.352 2.252 14.84 2.46 15.264C2.676 15.68 2.972 16.004 3.348 16.236C3.732 16.46 4.168 16.572 4.656 16.572C5.112 16.572 5.512 16.472 5.856 16.272C6.208 16.064 6.48 15.76 6.672 15.36H8.604C8.324 16.216 7.832 16.884 7.128 17.364C6.432 17.836 5.612 18.072 4.668 18.072C3.868 18.072 3.144 17.892 2.496 17.532C1.856 17.164 1.348 16.656 0.972 16.008C0.604 15.36 0.42 14.624 0.42 13.8ZM9.60694 14.652C9.60694 13.98 9.73894 13.384 10.0029 12.864C10.2749 12.344 10.6389 11.944 11.0949 11.664C11.5589 11.384 12.0749 11.244 12.6429 11.244C13.1389 11.244 13.5709 11.344 13.9389 11.544C14.3149 11.744 14.6149 11.996 14.8389 12.3V11.352H16.5309V18H14.8389V17.028C14.6229 17.34 14.3229 17.6 13.9389 17.808C13.5629 18.008 13.1269 18.108 12.6309 18.108C12.0709 18.108 11.5589 17.964 11.0949 17.676C10.6389 17.388 10.2749 16.984 10.0029 16.464C9.73894 15.936 9.60694 15.332 9.60694 14.652ZM14.8389 14.676C14.8389 14.268 14.7589 13.92 14.5989 13.632C14.4389 13.336 14.2229 13.112 13.9509 12.96C13.6789 12.8 13.3869 12.72 13.0749 12.72C12.7629 12.72 12.4749 12.796 12.2109 12.948C11.9469 13.1 11.7309 13.324 11.5629 13.62C11.4029 13.908 11.3229 14.252 11.3229 14.652C11.3229 15.052 11.4029 15.404 11.5629 15.708C11.7309 16.004 11.9469 16.232 12.2109 16.392C12.4829 16.552 12.7709 16.632 13.0749 16.632C13.3869 16.632 13.6789 16.556 13.9509 16.404C14.2229 16.244 14.4389 16.02 14.5989 15.732C14.7589 15.436 14.8389 15.084 14.8389 14.676ZM19.0238 10.56C18.7278 10.56 18.4798 10.468 18.2798 10.284C18.0878 10.092 17.9918 9.856 17.9918 9.576C17.9918 9.296 18.0878 9.064 18.2798 8.88C18.4798 8.688 18.7278 8.592 19.0238 8.592C19.3198 8.592 19.5638 8.688 19.7558 8.88C19.9558 9.064 20.0558 9.296 20.0558 9.576C20.0558 9.856 19.9558 10.092 19.7558 10.284C19.5638 10.468 19.3198 10.56 19.0238 10.56ZM19.8518 11.352V18H18.1718V11.352H19.8518ZM24.4636 18.108C23.8236 18.108 23.2476 17.968 22.7356 17.688C22.2236 17.4 21.8196 16.996 21.5236 16.476C21.2356 15.956 21.0916 15.356 21.0916 14.676C21.0916 13.996 21.2396 13.396 21.5356 12.876C21.8396 12.356 22.2516 11.956 22.7716 11.676C23.2916 11.388 23.8716 11.244 24.5116 11.244C25.1516 11.244 25.7316 11.388 26.2516 11.676C26.7716 11.956 27.1796 12.356 27.4756 12.876C27.7796 13.396 27.9316 13.996 27.9316 14.676C27.9316 15.356 27.7756 15.956 27.4636 16.476C27.1596 16.996 26.7436 17.4 26.2156 17.688C25.6956 17.968 25.1116 18.108 24.4636 18.108ZM24.4636 16.644C24.7676 16.644 25.0516 16.572 25.3156 16.428C25.5876 16.276 25.8036 16.052 25.9636 15.756C26.1236 15.46 26.2036 15.1 26.2036 14.676C26.2036 14.044 26.0356 13.56 25.6996 13.224C25.3716 12.88 24.9676 12.708 24.4876 12.708C24.0076 12.708 23.6036 12.88 23.2756 13.224C22.9556 13.56 22.7956 14.044 22.7956 14.676C22.7956 15.308 22.9516 15.796 23.2636 16.14C23.5836 16.476 23.9836 16.644 24.4636 16.644Z" fill="#112240"/>
<path d="M0.516 23.812C0.516 22.996 0.7 22.264 1.068 21.616C1.436 20.96 1.936 20.448 2.568 20.08C3.208 19.712 3.916 19.528 4.692 19.528C5.604 19.528 6.4 19.748 7.08 20.188C7.76 20.628 8.256 21.252 8.568 22.06H7.26C7.028 21.556 6.692 21.168 6.252 20.896C5.82 20.624 5.3 20.488 4.692 20.488C4.108 20.488 3.584 20.624 3.12 20.896C2.656 21.168 2.292 21.556 2.028 22.06C1.764 22.556 1.632 23.14 1.632 23.812C1.632 24.476 1.764 25.06 2.028 25.564C2.292 26.06 2.656 26.444 3.12 26.716C3.584 26.988 4.108 27.124 4.692 27.124C5.3 27.124 5.82 26.992 6.252 26.728C6.692 26.456 7.028 26.068 7.26 25.564H8.568C8.256 26.364 7.76 26.984 7.08 27.424C6.4 27.856 5.604 28.072 4.692 28.072C3.916 28.072 3.208 27.892 2.568 27.532C1.936 27.164 1.436 26.656 1.068 26.008C0.7 25.36 0.516 24.628 0.516 23.812ZM9.78553 24.688C9.78553 24.016 9.92153 23.428 10.1935 22.924C10.4655 22.412 10.8375 22.016 11.3095 21.736C11.7895 21.456 12.3215 21.316 12.9055 21.316C13.4815 21.316 13.9815 21.44 14.4055 21.688C14.8295 21.936 15.1455 22.248 15.3535 22.624V21.424H16.4575V28H15.3535V26.776C15.1375 27.16 14.8135 27.48 14.3815 27.736C13.9575 27.984 13.4615 28.108 12.8935 28.108C12.3095 28.108 11.7815 27.964 11.3095 27.676C10.8375 27.388 10.4655 26.984 10.1935 26.464C9.92153 25.944 9.78553 25.352 9.78553 24.688ZM15.3535 24.7C15.3535 24.204 15.2535 23.772 15.0535 23.404C14.8535 23.036 14.5815 22.756 14.2375 22.564C13.9015 22.364 13.5295 22.264 13.1215 22.264C12.7135 22.264 12.3415 22.36 12.0055 22.552C11.6695 22.744 11.4015 23.024 11.2015 23.392C11.0015 23.76 10.9015 24.192 10.9015 24.688C10.9015 25.192 11.0015 25.632 11.2015 26.008C11.4015 26.376 11.6695 26.66 12.0055 26.86C12.3415 27.052 12.7135 27.148 13.1215 27.148C13.5295 27.148 13.9015 27.052 14.2375 26.86C14.5815 26.66 14.8535 26.376 15.0535 26.008C15.2535 25.632 15.3535 25.196 15.3535 24.7ZM19.3949 22.492C19.5869 22.116 19.8589 21.824 20.2109 21.616C20.5709 21.408 21.0069 21.304 21.5189 21.304V22.432H21.2309C20.0069 22.432 19.3949 23.096 19.3949 24.424V28H18.3029V21.424H19.3949V22.492ZM25.2275 26.992L27.2675 21.424H28.4315L25.8515 28H24.5795L21.9995 21.424H23.1755L25.2275 26.992ZM29.098 24.688C29.098 24.016 29.234 23.428 29.506 22.924C29.778 22.412 30.15 22.016 30.622 21.736C31.102 21.456 31.634 21.316 32.218 21.316C32.794 21.316 33.294 21.44 33.718 21.688C34.142 21.936 34.458 22.248 34.666 22.624V21.424H35.77V28H34.666V26.776C34.45 27.16 34.126 27.48 33.694 27.736C33.27 27.984 32.774 28.108 32.206 28.108C31.622 28.108 31.094 27.964 30.622 27.676C30.15 27.388 29.778 26.984 29.506 26.464C29.234 25.944 29.098 25.352 29.098 24.688ZM34.666 24.7C34.666 24.204 34.566 23.772 34.366 23.404C34.166 23.036 33.894 22.756 33.55 22.564C33.214 22.364 32.842 22.264 32.434 22.264C32.026 22.264 31.654 22.36 31.318 22.552C30.982 22.744 30.714 23.024 30.514 23.392C30.314 23.76 30.214 24.192 30.214 24.688C30.214 25.192 30.314 25.632 30.514 26.008C30.714 26.376 30.982 26.66 31.318 26.86C31.654 27.052 32.026 27.148 32.434 27.148C32.842 27.148 33.214 27.052 33.55 26.86C33.894 26.66 34.166 26.376 34.366 26.008C34.566 25.632 34.666 25.196 34.666 24.7ZM38.7074 19.12V28H37.6154V19.12H38.7074ZM43.8325 21.304C44.3285 21.304 44.7765 21.412 45.1765 21.628C45.5765 21.836 45.8885 22.152 46.1125 22.576C46.3445 23 46.4605 23.516 46.4605 24.124V28H45.3805V24.28C45.3805 23.624 45.2165 23.124 44.8885 22.78C44.5605 22.428 44.1125 22.252 43.5445 22.252C42.9685 22.252 42.5085 22.432 42.1645 22.792C41.8285 23.152 41.6605 23.676 41.6605 24.364V28H40.5685V19.12H41.6605V22.36C41.8765 22.024 42.1725 21.764 42.5485 21.58C42.9325 21.396 43.3605 21.304 43.8325 21.304ZM51.1123 28.108C50.4963 28.108 49.9363 27.968 49.4323 27.688C48.9363 27.408 48.5443 27.012 48.2563 26.5C47.9763 25.98 47.8363 25.38 47.8363 24.7C47.8363 24.028 47.9803 23.436 48.2683 22.924C48.5643 22.404 48.9643 22.008 49.4683 21.736C49.9723 21.456 50.5363 21.316 51.1603 21.316C51.7843 21.316 52.3483 21.456 52.8523 21.736C53.3563 22.008 53.7523 22.4 54.0403 22.912C54.3363 23.424 54.4843 24.02 54.4843 24.7C54.4843 25.38 54.3323 25.98 54.0283 26.5C53.7323 27.012 53.3283 27.408 52.8163 27.688C52.3043 27.968 51.7363 28.108 51.1123 28.108ZM51.1123 27.148C51.5043 27.148 51.8723 27.056 52.2163 26.872C52.5603 26.688 52.8363 26.412 53.0443 26.044C53.2603 25.676 53.3683 25.228 53.3683 24.7C53.3683 24.172 53.2643 23.724 53.0563 23.356C52.8483 22.988 52.5763 22.716 52.2403 22.54C51.9043 22.356 51.5403 22.264 51.1483 22.264C50.7483 22.264 50.3803 22.356 50.0443 22.54C49.7163 22.716 49.4523 22.988 49.2523 23.356C49.0523 23.724 48.9523 24.172 48.9523 24.7C48.9523 25.236 49.0483 25.688 49.2403 26.056C49.4403 26.424 49.7043 26.7 50.0323 26.884C50.3603 27.06 50.7203 27.148 51.1123 27.148Z" fill="#112240"/>
<path d="M29.5177 10.9127L29.9747 8.88643L37.6955 7.51579L37.1956 9.73198L32.147 10.4206L32.2442 10.3299L32.186 10.588L32.1382 10.4595L36.4014 13.2535L35.9026 15.4649L29.5177 10.9127ZM44.8042 6.54966L38.8958 17.7677L36.8647 17.3096L42.7731 6.09154L44.8042 6.54966ZM51.4921 15.869L43.7713 17.2396L44.27 15.0283L49.3198 14.3349L49.2263 14.4315L49.2846 14.1734L49.3286 14.2959L45.0643 11.5068L45.5642 9.29058L51.9491 13.8428L51.4921 15.869Z" fill="url(#paint0_linear_38_7)"/>
<defs>
<linearGradient id="paint0_linear_38_7" x1="41.4448" y1="2.4144" x2="34.9731" y2="17.1643" gradientUnits="userSpaceOnUse">
<stop stop-color="#63FFDA"/>
<stop offset="1" stop-color="#08785D"/>
</linearGradient>
</defs>
</svg>
