<svg width="55" height="23" viewBox="0 0 55 23" fill="none" xmlns="http://www.w3.org/2000/svg">
<path d="M0.420044 7.80001C0.420044 6.97601 0.604044 6.24001 0.972044 5.59201C1.34804 4.93601 1.85604 4.42801 2.49604 4.06801C3.14404 3.70001 3.86804 3.51601 4.66804 3.51601C5.60404 3.51601 6.42404 3.75601 7.12804 4.23601C7.83204 4.71601 8.32404 5.38001 8.60404 6.22801H6.67204C6.48004 5.82801 6.20804 5.52801 5.85604 5.32801C5.51204 5.12801 5.11204 5.02801 4.65604 5.02801C4.16804 5.02801 3.73204 5.14401 3.34804 5.37601C2.97204 5.60001 2.67604 5.92001 2.46004 6.33601C2.25204 6.75201 2.14804 7.24001 2.14804 7.80001C2.14804 8.35201 2.25204 8.84001 2.46004 9.26401C2.67604 9.68001 2.97204 10.004 3.34804 10.236C3.73204 10.46 4.16804 10.572 4.65604 10.572C5.11204 10.572 5.51204 10.472 5.85604 10.272C6.20804 10.064 6.48004 9.76001 6.67204 9.36001H8.60404C8.32404 10.216 7.83204 10.884 7.12804 11.364C6.43204 11.836 5.61204 12.072 4.66804 12.072C3.86804 12.072 3.14404 11.892 2.49604 11.532C1.85604 11.164 1.34804 10.656 0.972044 10.008C0.604044 9.36001 0.420044 8.62401 0.420044 7.80001Z" fill="white"/>
<path d="M9.60698 8.65201C9.60698 7.98001 9.73898 7.38401 10.003 6.86401C10.275 6.34401 10.639 5.94401 11.095 5.66401C11.559 5.38401 12.075 5.24401 12.643 5.24401C13.139 5.24401 13.571 5.34401 13.939 5.54401C14.315 5.74401 14.615 5.99601 14.839 6.30001V5.35201H16.531V12H14.839V11.028C14.623 11.34 14.323 11.6 13.939 11.808C13.563 12.008 13.127 12.108 12.631 12.108C12.071 12.108 11.559 11.964 11.095 11.676C10.639 11.388 10.275 10.984 10.003 10.464C9.73898 9.93601 9.60698 9.33201 9.60698 8.65201ZM14.839 8.67601C14.839 8.26801 14.759 7.92001 14.599 7.63201C14.439 7.33601 14.223 7.11201 13.951 6.96001C13.679 6.80001 13.387 6.72001 13.075 6.72001C12.763 6.72001 12.475 6.79601 12.211 6.94801C11.947 7.10001 11.731 7.32401 11.563 7.62001C11.403 7.90801 11.323 8.25201 11.323 8.65201C11.323 9.05201 11.403 9.40401 11.563 9.70801C11.731 10.004 11.947 10.232 12.211 10.392C12.483 10.552 12.771 10.632 13.075 10.632C13.387 10.632 13.679 10.556 13.951 10.404C14.223 10.244 14.439 10.02 14.599 9.73201C14.759 9.43601 14.839 9.08401 14.839 8.67601Z" fill="white"/>
<path d="M19.0238 4.56001C18.7278 4.56001 18.4798 4.46801 18.2798 4.28401C18.0878 4.09201 17.9918 3.85601 17.9918 3.57601C17.9918 3.29601 18.0878 3.06401 18.2798 2.88001C18.4798 2.68801 18.7278 2.59201 19.0238 2.59201C19.3198 2.59201 19.5638 2.68801 19.7558 2.88001C19.9558 3.06401 20.0558 3.29601 20.0558 3.57601C20.0558 3.85601 19.9558 4.09201 19.7558 4.28401C19.5638 4.46801 19.3198 4.56001 19.0238 4.56001ZM19.8518 5.35201V12H18.1718V5.35201H19.8518Z" fill="white"/>
<path d="M24.4636 12.108C23.8236 12.108 23.2476 11.968 22.7356 11.688C22.2236 11.4 21.8196 10.996 21.5236 10.476C21.2356 9.95601 21.0916 9.35601 21.0916 8.67601C21.0916 7.99601 21.2396 7.39601 21.5356 6.87601C21.8396 6.35601 22.2516 5.95601 22.7716 5.67601C23.2916 5.38801 23.8716 5.24401 24.5116 5.24401C25.1516 5.24401 25.7316 5.38801 26.2516 5.67601C26.7716 5.95601 27.1796 6.35601 27.4756 6.87601C27.7796 7.39601 27.9316 7.99601 27.9316 8.67601C27.9316 9.35601 27.7756 9.95601 27.4636 10.476C27.1596 10.996 26.7436 11.4 26.2156 11.688C25.6956 11.968 25.1116 12.108 24.4636 12.108ZM24.4636 10.644C24.7676 10.644 25.0516 10.572 25.3156 10.428C25.5876 10.276 25.8036 10.052 25.9636 9.75601C26.1236 9.46001 26.2036 9.10001 26.2036 8.67601C26.2036 8.04401 26.0356 7.56001 25.6996 7.22401C25.3716 6.88001 24.9676 6.70801 24.4876 6.70801C24.0076 6.70801 23.6036 6.88001 23.2756 7.22401C22.9556 7.56001 22.7956 8.04401 22.7956 8.67601C22.7956 9.30801 22.9516 9.79601 23.2636 10.14C23.5836 10.476 23.9836 10.644 24.4636 10.644Z" fill="white"/>
<path d="M0.516044 17.812C0.516044 16.996 0.700044 16.264 1.06804 15.616C1.43604 14.96 1.93604 14.448 2.56804 14.08C3.20804 13.712 3.91604 13.528 4.69204 13.528C5.60404 13.528 6.40004 13.748 7.08004 14.188C7.76004 14.628 8.25604 15.252 8.56804 16.06H7.26004C7.02804 15.556 6.69204 15.168 6.25204 14.896C5.82004 14.624 5.30004 14.488 4.69204 14.488C4.10804 14.488 3.58404 14.624 3.12004 14.896C2.65604 15.168 2.29204 15.556 2.02804 16.06C1.76404 16.556 1.63204 17.14 1.63204 17.812C1.63204 18.476 1.76404 19.06 2.02804 19.564C2.29204 20.06 2.65604 20.444 3.12004 20.716C3.58404 20.988 4.10804 21.124 4.69204 21.124C5.30004 21.124 5.82004 20.992 6.25204 20.728C6.69204 20.456 7.02804 20.068 7.26004 19.564H8.56804C8.25604 20.364 7.76004 20.984 7.08004 21.424C6.40004 21.856 5.60404 22.072 4.69204 22.072C3.91604 22.072 3.20804 21.892 2.56804 21.532C1.93604 21.164 1.43604 20.656 1.06804 20.008C0.700044 19.36 0.516044 18.628 0.516044 17.812Z" fill="white"/>
<path d="M9.78557 18.688C9.78557 18.016 9.92157 17.428 10.1936 16.924C10.4656 16.412 10.8376 16.016 11.3096 15.736C11.7896 15.456 12.3216 15.316 12.9056 15.316C13.4816 15.316 13.9816 15.44 14.4056 15.688C14.8296 15.936 15.1456 16.248 15.3536 16.624V15.424H16.4576V22H15.3536V20.776C15.1376 21.16 14.8136 21.48 14.3816 21.736C13.9576 21.984 13.4616 22.108 12.8936 22.108C12.3096 22.108 11.7816 21.964 11.3096 21.676C10.8376 21.388 10.4656 20.984 10.1936 20.464C9.92157 19.944 9.78557 19.352 9.78557 18.688ZM15.3536 18.7C15.3536 18.204 15.2536 17.772 15.0536 17.404C14.8536 17.036 14.5816 16.756 14.2376 16.564C13.9016 16.364 13.5296 16.264 13.1216 16.264C12.7136 16.264 12.3416 16.36 12.0056 16.552C11.6696 16.744 11.4016 17.024 11.2016 17.392C11.0016 17.76 10.9016 18.192 10.9016 18.688C10.9016 19.192 11.0016 19.632 11.2016 20.008C11.4016 20.376 11.6696 20.66 12.0056 20.86C12.3416 21.052 12.7136 21.148 13.1216 21.148C13.5296 21.148 13.9016 21.052 14.2376 20.86C14.5816 20.66 14.8536 20.376 15.0536 20.008C15.2536 19.632 15.3536 19.196 15.3536 18.7Z" fill="white"/>
<path d="M19.395 16.492C19.587 16.116 19.859 15.824 20.211 15.616C20.571 15.408 21.007 15.304 21.519 15.304V16.432H21.2309C20.0069 16.432 19.395 17.096 19.395 18.424V22H18.3029V15.424H19.395V16.492Z" fill="white"/>
<path d="M25.2275 20.992L27.2675 15.424H28.4315L25.8515 22H24.5795L21.9995 15.424H23.1755L25.2275 20.992Z" fill="white"/>
<path d="M29.0981 18.688C29.0981 18.016 29.2341 17.428 29.5061 16.924C29.7781 16.412 30.1501 16.016 30.6221 15.736C31.1021 15.456 31.6341 15.316 32.2181 15.316C32.7941 15.316 33.2941 15.44 33.7181 15.688C34.1421 15.936 34.4581 16.248 34.6661 16.624V15.424H35.7701V22H34.6661V20.776C34.4501 21.16 34.1261 21.48 33.6941 21.736C33.2701 21.984 32.7741 22.108 32.2061 22.108C31.6221 22.108 31.0941 21.964 30.6221 21.676C30.1501 21.388 29.7781 20.984 29.5061 20.464C29.2341 19.944 29.0981 19.352 29.0981 18.688ZM34.6661 18.7C34.6661 18.204 34.5661 17.772 34.3661 17.404C34.1661 17.036 33.8941 16.756 33.5501 16.564C33.2141 16.364 32.8421 16.264 32.4341 16.264C32.0261 16.264 31.6541 16.36 31.3181 16.552C30.9821 16.744 30.7141 17.024 30.5141 17.392C30.3141 17.76 30.2141 18.192 30.2141 18.688C30.2141 19.192 30.3141 19.632 30.5141 20.008C30.7141 20.376 30.9821 20.66 31.3181 20.86C31.6541 21.052 32.0261 21.148 32.4341 21.148C32.8421 21.148 33.2141 21.052 33.5501 20.86C33.8941 20.66 34.1661 20.376 34.3661 20.008C34.5661 19.632 34.6661 19.196 34.6661 18.7Z" fill="white"/>
<path d="M38.7075 13.12V22H37.6155V13.12H38.7075Z" fill="white"/>
<path d="M43.8326 15.304C44.3286 15.304 44.7766 15.412 45.1766 15.628C45.5766 15.836 45.8886 16.152 46.1126 16.576C46.3446 17 46.4606 17.516 46.4606 18.124V22H45.3806V18.28C45.3806 17.624 45.2166 17.124 44.8886 16.78C44.5606 16.428 44.1126 16.252 43.5446 16.252C42.9686 16.252 42.5086 16.432 42.1646 16.792C41.8286 17.152 41.6606 17.676 41.6606 18.364V22H40.5686V13.12H41.6606V16.36C41.8766 16.024 42.1726 15.764 42.5486 15.58C42.9326 15.396 43.3606 15.304 43.8326 15.304Z" fill="white"/>
<path d="M51.1124 22.108C50.4964 22.108 49.9364 21.968 49.4324 21.688C48.9364 21.408 48.5444 21.012 48.2564 20.5C47.9764 19.98 47.8364 19.38 47.8364 18.7C47.8364 18.028 47.9804 17.436 48.2684 16.924C48.5644 16.404 48.9644 16.008 49.4684 15.736C49.9724 15.456 50.5364 15.316 51.1604 15.316C51.7844 15.316 52.3484 15.456 52.8524 15.736C53.3564 16.008 53.7524 16.4 54.0404 16.912C54.3364 17.424 54.4844 18.02 54.4844 18.7C54.4844 19.38 54.3324 19.98 54.0284 20.5C53.7324 21.012 53.3284 21.408 52.8164 21.688C52.3044 21.968 51.7364 22.108 51.1124 22.108ZM51.1124 21.148C51.5044 21.148 51.8724 21.056 52.2164 20.872C52.5604 20.688 52.8364 20.412 53.0444 20.044C53.2604 19.676 53.3684 19.228 53.3684 18.7C53.3684 18.172 53.2644 17.724 53.0564 17.356C52.8484 16.988 52.5764 16.716 52.2404 16.54C51.9044 16.356 51.5404 16.264 51.1484 16.264C50.7484 16.264 50.3804 16.356 50.0444 16.54C49.7164 16.716 49.4524 16.988 49.2524 17.356C49.0524 17.724 48.9524 18.172 48.9524 18.7C48.9524 19.236 49.0484 19.688 49.2404 20.056C49.4404 20.424 49.7044 20.7 50.0324 20.884C50.3604 21.06 50.7204 21.148 51.1124 21.148Z" fill="white"/>
<path d="M29.5177 4.91267L29.9747 2.88644L37.6955 1.5158L37.1957 3.73199L32.147 4.42058L32.2443 4.32991L32.186 4.58806L32.1383 4.45955L36.4014 7.25354L35.9026 9.46486L29.5177 4.91267Z" fill="url(#paint0_linear_38_8)"/>
<path d="M44.8043 0.549669L38.8958 11.7677L36.8647 11.3096L42.7732 0.0915527L44.8043 0.549669Z" fill="url(#paint1_linear_38_8)"/>
<path d="M51.4921 9.86901L43.7713 11.2397L44.2701 9.02833L49.3198 8.33487L49.2264 8.43151L49.2846 8.17336L49.3286 8.2959L45.0644 5.50678L45.5642 3.29059L51.9491 7.84278L51.4921 9.86901Z" fill="url(#paint2_linear_38_8)"/>
<defs>
<linearGradient id="paint0_linear_38_8" x1="41.4448" y1="-3.5856" x2="34.9731" y2="11.1643" gradientUnits="userSpaceOnUse">
<stop stop-color="#63FFDA"/>
<stop offset="1" stop-color="#08785D"/>
</linearGradient>
<linearGradient id="paint1_linear_38_8" x1="41.4448" y1="-3.5856" x2="34.9731" y2="11.1643" gradientUnits="userSpaceOnUse">
<stop stop-color="#63FFDA"/>
<stop offset="1" stop-color="#08785D"/>
</linearGradient>
<linearGradient id="paint2_linear_38_8" x1="41.4448" y1="-3.5856" x2="34.9731" y2="11.1643" gradientUnits="userSpaceOnUse">
<stop stop-color="#63FFDA"/>
<stop offset="1" stop-color="#08785D"/>
</linearGradient>
</defs>
</svg>
