<svg width="218" height="41" viewBox="0 0 218 41" fill="none" xmlns="http://www.w3.org/2000/svg">
<path d="M0.784 35L8.272 18.2H12.112L19.624 35H15.544L9.4 20.168H10.936L4.768 35H0.784ZM4.528 31.4L5.56 28.448H14.2L15.256 31.4H4.528ZM21.367 35V18.2H25.255V31.832H33.679V35H21.367ZM35.8514 35V18.2H39.7394V31.832H48.1634V35H35.8514ZM50.3358 35V18.2H54.2238V35H50.3358ZM66.3228 35.288C64.9948 35.288 63.7708 35.08 62.6508 34.664C61.5468 34.232 60.5788 33.624 59.7467 32.84C58.9308 32.056 58.2908 31.136 57.8268 30.08C57.3788 29.024 57.1548 27.864 57.1548 26.6C57.1548 25.336 57.3788 24.176 57.8268 23.12C58.2908 22.064 58.9388 21.144 59.7708 20.36C60.6028 19.576 61.5788 18.976 62.6988 18.56C63.8188 18.128 65.0508 17.912 66.3948 17.912C67.8828 17.912 69.2188 18.16 70.4028 18.656C71.6028 19.152 72.6108 19.872 73.4268 20.816L70.9308 23.12C70.3228 22.48 69.6588 22.008 68.9388 21.704C68.2188 21.384 67.4348 21.224 66.5868 21.224C65.7708 21.224 65.0268 21.352 64.3548 21.608C63.6828 21.864 63.0988 22.232 62.6028 22.712C62.1228 23.192 61.7468 23.76 61.4748 24.416C61.2188 25.072 61.0908 25.8 61.0908 26.6C61.0908 27.384 61.2188 28.104 61.4748 28.76C61.7468 29.416 62.1228 29.992 62.6028 30.488C63.0988 30.968 63.6748 31.336 64.3308 31.592C65.0028 31.848 65.7388 31.976 66.5388 31.976C67.3068 31.976 68.0508 31.856 68.7708 31.616C69.5068 31.36 70.2188 30.936 70.9068 30.344L73.1148 33.152C72.2028 33.84 71.1388 34.368 69.9228 34.736C68.7228 35.104 67.5228 35.288 66.3228 35.288ZM69.5628 32.648V26.336H73.1148V33.152L69.5628 32.648ZM74.5184 35L82.0064 18.2H85.8464L93.3584 35H89.2784L83.1344 20.168H84.6704L78.5024 35H74.5184ZM78.2624 31.4L79.2944 28.448H87.9344L88.9904 31.4H78.2624ZM97.7376 35V21.368H92.3616V18.2H107.002V21.368H101.626V35H97.7376ZM117.019 35.288C115.691 35.288 114.459 35.072 113.323 34.64C112.203 34.208 111.227 33.6 110.395 32.816C109.579 32.032 108.939 31.112 108.475 30.056C108.027 29 107.803 27.848 107.803 26.6C107.803 25.352 108.027 24.2 108.475 23.144C108.939 22.088 109.587 21.168 110.419 20.384C111.251 19.6 112.227 18.992 113.347 18.56C114.467 18.128 115.683 17.912 116.995 17.912C118.323 17.912 119.539 18.128 120.643 18.56C121.763 18.992 122.731 19.6 123.547 20.384C124.379 21.168 125.027 22.088 125.491 23.144C125.955 24.184 126.187 25.336 126.187 26.6C126.187 27.848 125.955 29.008 125.491 30.08C125.027 31.136 124.379 32.056 123.547 32.84C122.731 33.608 121.763 34.208 120.643 34.64C119.539 35.072 118.331 35.288 117.019 35.288ZM116.995 31.976C117.747 31.976 118.435 31.848 119.059 31.592C119.699 31.336 120.259 30.968 120.739 30.488C121.219 30.008 121.587 29.44 121.843 28.784C122.115 28.128 122.251 27.4 122.251 26.6C122.251 25.8 122.115 25.072 121.843 24.416C121.587 23.76 121.219 23.192 120.739 22.712C120.275 22.232 119.723 21.864 119.083 21.608C118.443 21.352 117.747 21.224 116.995 21.224C116.243 21.224 115.547 21.352 114.907 21.608C114.283 21.864 113.731 22.232 113.251 22.712C112.771 23.192 112.395 23.76 112.123 24.416C111.867 25.072 111.739 25.8 111.739 26.6C111.739 27.384 111.867 28.112 112.123 28.784C112.395 29.44 112.763 30.008 113.227 30.488C113.707 30.968 114.267 31.336 114.907 31.592C115.547 31.848 116.243 31.976 116.995 31.976ZM129.109 35V18.2H136.381C137.885 18.2 139.181 18.448 140.269 18.944C141.357 19.424 142.197 20.12 142.789 21.032C143.381 21.944 143.677 23.032 143.677 24.296C143.677 25.544 143.381 26.624 142.789 27.536C142.197 28.432 141.357 29.12 140.269 29.6C139.181 30.08 137.885 30.32 136.381 30.32H131.269L132.997 28.616V35H129.109ZM139.789 35L135.589 28.904H139.741L143.989 35H139.789ZM132.997 29.048L131.269 27.224H136.165C137.365 27.224 138.261 26.968 138.853 26.456C139.445 25.928 139.741 25.208 139.741 24.296C139.741 23.368 139.445 22.648 138.853 22.136C138.261 21.624 137.365 21.368 136.165 21.368H131.269L132.997 19.52V29.048ZM153.555 35V18.2H160.827C162.331 18.2 163.627 18.448 164.715 18.944C165.803 19.424 166.643 20.12 167.235 21.032C167.827 21.944 168.123 23.032 168.123 24.296C168.123 25.544 167.827 26.624 167.235 27.536C166.643 28.448 165.803 29.152 164.715 29.648C163.627 30.128 162.331 30.368 160.827 30.368H155.715L157.443 28.616V35H153.555ZM157.443 29.048L155.715 27.2H160.611C161.811 27.2 162.707 26.944 163.299 26.432C163.891 25.92 164.187 25.208 164.187 24.296C164.187 23.368 163.891 22.648 163.299 22.136C162.707 21.624 161.811 21.368 160.611 21.368H155.715L157.443 19.52V29.048ZM170.898 35V18.2H174.786V31.832H183.21V35H170.898ZM183.268 35L190.756 18.2H194.596L202.108 35H198.028L191.884 20.168H193.42L187.252 35H183.268ZM187.012 31.4L188.044 28.448H196.684L197.74 31.4H187.012ZM206.996 35V28.136L207.884 30.488L200.492 18.2H204.62L210.284 27.632H207.908L213.596 18.2H217.412L210.02 30.488L210.884 28.136V35H206.996Z" fill="#D4AF37"/>
<path d="M99.5222 13.1589C98.8778 13.1589 98.2378 13.075 97.6022 12.9073C96.9666 12.7308 96.4281 12.4836 95.9868 12.1658L96.821 10.5239C97.1741 10.7799 97.5846 10.9829 98.0524 11.133C98.5203 11.283 98.9926 11.3581 99.4692 11.3581C100.008 11.3581 100.431 11.2521 100.74 11.0403C101.049 10.8284 101.204 10.5371 101.204 10.1663C101.204 9.81324 101.067 9.53517 100.793 9.33214C100.52 9.1291 100.078 9.02759 99.4692 9.02759H98.4894V7.61076L101.071 4.68441L101.31 5.45241H96.4502V3.73103H102.938V5.12138L100.37 8.04772L99.2839 7.42538H99.9062C101.045 7.42538 101.906 7.68138 102.488 8.19338C103.071 8.70538 103.362 9.36303 103.362 10.1663C103.362 10.6872 103.225 11.1771 102.952 11.6361C102.678 12.0863 102.259 12.4527 101.694 12.7352C101.129 13.0177 100.405 13.1589 99.5222 13.1589ZM106.67 7.45186C106.184 7.45186 105.752 7.35917 105.372 7.17379C104.993 6.97959 104.692 6.71917 104.472 6.39255C104.26 6.0571 104.154 5.67752 104.154 5.25379C104.154 4.83007 104.264 4.4549 104.485 4.12828C104.706 3.80166 105.001 3.54566 105.372 3.36028C105.752 3.16607 106.184 3.06897 106.67 3.06897C107.155 3.06897 107.584 3.16607 107.954 3.36028C108.334 3.54566 108.63 3.80166 108.841 4.12828C109.062 4.4549 109.172 4.83007 109.172 5.25379C109.172 5.67752 109.062 6.0571 108.841 6.39255C108.63 6.71917 108.334 6.97959 107.954 7.17379C107.584 7.35917 107.155 7.45186 106.67 7.45186ZM106.67 6.35283C106.996 6.35283 107.261 6.25572 107.464 6.06152C107.667 5.85848 107.769 5.58924 107.769 5.25379C107.769 4.91834 107.667 4.65352 107.464 4.45931C107.261 4.2651 106.996 4.168 106.67 4.168C106.343 4.168 106.074 4.2651 105.862 4.45931C105.659 4.65352 105.558 4.91834 105.558 5.25379C105.558 5.58924 105.659 5.85848 105.862 6.06152C106.074 6.25572 106.343 6.35283 106.67 6.35283ZM114.336 13V3.73103H118.865C120.03 3.73103 120.904 3.95172 121.486 4.3931C122.078 4.83448 122.374 5.4171 122.374 6.14097C122.374 6.62648 122.254 7.05021 122.016 7.41214C121.778 7.76524 121.451 8.0389 121.036 8.2331C120.621 8.42731 120.145 8.52441 119.606 8.52441L119.858 7.98152C120.44 7.98152 120.957 8.07862 121.407 8.27283C121.857 8.45821 122.206 8.73628 122.453 9.10703C122.709 9.47779 122.837 9.93241 122.837 10.4709C122.837 11.2654 122.524 11.8877 121.897 12.3379C121.27 12.7793 120.348 13 119.129 13H114.336ZM116.468 11.3846H118.971C119.527 11.3846 119.946 11.2963 120.229 11.1197C120.52 10.9343 120.665 10.643 120.665 10.2458C120.665 9.85738 120.52 9.57048 120.229 9.3851C119.946 9.1909 119.527 9.09379 118.971 9.09379H116.309V7.53131H118.6C119.121 7.53131 119.518 7.44303 119.792 7.26648C120.074 7.0811 120.215 6.80303 120.215 6.43228C120.215 6.07035 120.074 5.8011 119.792 5.62455C119.518 5.43917 119.121 5.34648 118.6 5.34648H116.468V11.3846Z" fill="#D4AF37"/>
</svg>
